<svg version="1.1" xmlns="http://www.w3.org/2000/svg" viewBox="0 0 661.8834115211666 494.9367959916591">
  <!-- svg-source:excalidraw -->
  <defs>
    <style>
      @font-face {
        font-family: "Virgil";
        src: url("https://excalidraw.com/FG_Virgil.woff2");
      }
      @font-face {
        font-family: "Cascadia";
        src: url("https://excalidraw.com/Cascadia.woff2");
      }
    </style>
  </defs>
  <rect x="0" y="0" width="661.8834115211666" height="494.9367959916591" fill="#ffffff"></rect><g transform="translate(11.883411521166579 80) rotate(0 71.5 30)"><path d="M-2.270564615726471 -2.4245657324790955 C40.584340380132204 1.4880147364735605, 72.52951637208463 0.12386182814836522, 140.9108528494835 2.7778974175453186 M0.436325341463089 1.8605577647686005 C55.777179475128655 -3.710594085752964, 113.40346451699735 -3.4779042282700536, 142.98894241452217 -1.760708600282669 M139.20249408483505 2.591969072818756 C141.02119194865227 20.479010969400406, 147.01019226908684 40.018945932388306, 146.71832317113876 59.17779403924942 M141.8327458202839 -0.5265090763568878 C142.8387192249298 17.534255862236023, 141.2313498020172 33.14894536137581, 142.1580984890461 60.57216474413872 M144.11787456274033 60.92301803827286 C110.50852058082819 62.83664230793715, 71.2511563450098 59.64277748554945, -3.807275354862213 63.01134544610977 M141.47529056668282 60.7509443461895 C98.58923064917326 58.31028255611658, 54.13899226486683 56.93536743313074, 1.1016991436481476 60.11936303973198 M-2.7841888070106506 56.42209678888321 C3.919007021188736 39.53689929842949, 4.126391130685806 10.855376124382019, -0.9882083535194397 2.1945672631263733 M1.0094673931598663 60.00053521990776 C2.0230908513069155 43.321148455142975, 0.4071154713630676 31.639045625925064, -1.5034978091716766 0.6572534739971161" stroke="#000000" stroke-width="1" fill="none"></path></g><g transform="translate(476.8834115211666 67) rotate(0 87.5 41)"><path d="M-3.472186505794525 2.085178792476654 C66.43315551429987 -0.43707818537950516, 139.29607810080051 1.7962458655238152, 173.54601150751114 -1.478520929813385 M0.8300926387310028 1.4017641842365265 C45.69229906052351 2.273871459066868, 91.76858629286289 2.228422202169895, 174.6207830607891 -1.1808726489543915 M178.18381363153458 -2.1321921944618225 C173.18523276627064 18.29697421491146, 177.90372145950795 33.259770995378496, 178.2592015862465 78.91976970434189 M173.5251486003399 -0.5519129931926727 C173.7057832890749 27.32801488339901, 176.61492578327656 59.66231898069382, 176.62074014544487 80.74756076931953 M174.37503105401993 82.12400859594345 C128.84234633296728 80.21288401633501, 82.31802342832087 76.72318560630083, 0.43924957513809204 85.01624149084091 M174.82124826312065 81.47490909695625 C136.99262500554323 78.24688627570868, 95.07144193351269 78.06978418678045, 1.8652956187725067 81.68481376767159 M1.2674813866615295 80.59401553869247 C3.6396184271574024 47.15120643675327, -0.7762922936677932 15.378746455907816, 0.3146710991859436 -2.5113711953163147 M0.36975881457328796 82.6277382671833 C1.8155135530233384 62.39333975613117, -1.5431051832437515 42.82620809078217, 0.47456666827201843 -0.19235584139823914" stroke="#000000" stroke-width="1" fill="none"></path></g><g transform="translate(215.88341152116658 10) rotate(0 97 23)"><text x="0" y="32" font-family="Virgil, Segoe UI Emoji" font-size="36px" fill="#000000" text-anchor="start" style="white-space: pre;" direction="ltr">Imlicit Flow</text></g><g transform="translate(26.38341152116658 101) rotate(0 56.5 13)"><text x="0" y="18" font-family="Virgil, Segoe UI Emoji" font-size="20px" fill="#000000" text-anchor="start" style="white-space: pre;" direction="ltr">Client / RP</text></g><g transform="translate(496.3834115211666 94) rotate(0 68.5 13)"><text x="0" y="18" font-family="Virgil, Segoe UI Emoji" font-size="20px" fill="#000000" text-anchor="start" style="white-space: pre;" direction="ltr">Provider / OP</text></g><g><g transform="translate(75.88341152116658 139) rotate(0 1.7196991334110692 168.9969257428497)"><path d="M-0.6905922830104827 1.2199068009853367 C-0.25386952757835396 57.997367598613096, 0.7110280732313787 282.4361229519049, 1.121190363168716 338.5800205171108 M4.129990549832582 -0.5861690314114094 C4.521233700861534 55.565307620416085, 0.47855770821372684 278.8057998514672, 0.034684739857912206 334.4270776812732" stroke="#000000" stroke-width="1" fill="none"></path></g></g><g><g transform="translate(564.8834115211666 485) rotate(0 -0.5207009904086704 -171.4261971662194)"><path d="M-2.374876493215561 -0.0632040083408354 C-2.985346120595932 -56.30925395290057, -1.0438127775986992 -281.88658746679624, -0.920686620473862 -339.26385689377787 M1.5313806255161762 -2.5658257086575036 C0.39743171925346044 -59.360146582871685, -1.7765300806860127 -286.13685812786224, -2.572782606333494 -342.7891903240979" stroke="#000000" stroke-width="1" fill="none"></path></g></g><g><g transform="translate(76.88341152116658 177) rotate(0 243.0485513672978 0.07106383803784411)"><path d="M0.2448376715183258 2.559241861104965 C81.61330888072649 2.666314882040024, 408.2754171748956 1.8291160523891445, 489.16387739777565 1.3258680284023283 M-3.066774663180113 1.4802336327731611 C77.94773753081759 0.778350095798572, 405.1979008936385 -2.6659631744523846, 487.55768759325144 -2.422186158448458" stroke="#000000" stroke-width="1" fill="none"></path></g><g transform="translate(76.88341152116658 177) rotate(0 243.0485513672978 0.07106383803784411)"><path d="M463.07199038494093 9.634797758000854 C472.088260233301 0.9873836486558236, 478.93707066057107 -2.3760127698902016, 486.91639365032313 -6.32210525110364 M458.25639347661 7.956435716289047 C469.2140315514111 5.295661287822405, 480.12235643816285 -0.4373438463343584, 487.6014995999634 -3.572810165435076" stroke="#000000" stroke-width="1" fill="none"></path></g><g transform="translate(76.88341152116658 177) rotate(0 243.0485513672978 0.07106383803784411)"><path d="M462.9745823325227 -10.88617965676093 C472.123566192258 -12.678988019613993, 479.00491456233357 -9.187608340519896, 486.91639365032313 -6.32210525110364 M458.15898542419177 -12.564541698472738 C468.8915080367678 -7.526259337494196, 479.83637428428483 -5.561087366647625, 487.6014995999634 -3.572810165435076" stroke="#000000" stroke-width="1" fill="none"></path></g></g><g transform="translate(250.88341152116658 149.5) rotate(0 64 13)"><text x="0" y="18" font-family="Virgil, Segoe UI Emoji" font-size="20px" fill="#000000" text-anchor="start" style="white-space: pre;" direction="ltr">Auth request</text></g><g transform="translate(264.8834115211666 250) rotate(0 44.5 44.5)"><path d="M57.417570499541256 1.071772936943404 C65.1022318785661 3.39014671218917, 73.75706753854105 11.512404280198727, 79.28732888031999 18.1850833822864 C84.81759022209893 24.857762484374074, 89.71061274294098 32.8568829386246, 90.59913855021486 41.10784754946944 C91.48766435748874 49.35881216031428, 88.89943903931682 60.270495987743445, 84.61848372396325 67.69087104735543 C80.33752840860969 75.11124610696741, 72.72705891100266 81.85011349295553, 64.91340665809344 85.63009790714135 C57.09975440518422 89.41008232132717, 46.072955624491534 91.61314342712242, 37.736570206507956 90.37077753247037 C29.400184788524378 89.12841163781832, 21.21294284404204 83.62794775324816, 14.89509415019197 78.17590253922904 C8.577245456341899 72.72385732520992, 1.9968701976387275 65.42156099252912, -0.1705219565924665 57.65850624835566 C-2.3379141108236605 49.895451504182184, -0.76064420974039 39.63423793708642, 1.890741224804806 31.59757407418822 C4.542126659350002 23.56091021129002, 8.986631290278467 14.817346515813927, 15.737790650678711 9.438523070966475 C22.488950011078956 4.059699626119024, 31.58451571551256 -1.6681273549497107, 42.39769738720628 -0.6753665948964809 C53.2108790589 0.3173941651567489, 73.17995496245447 8.29392682162197, 80.61688068084104 15.395087631285854 C88.0538063992276 22.49624844094974, 87.90027729888158 41.46753036094801, 87.01925169752565 41.931598263086826 M51.07037157192678 -1.559019223270333 C59.10760172282188 -1.8798338562433337, 66.1809790711498 4.222258187450373, 72.3855201285354 9.960871351847288 C78.590061185921 15.699484516244205, 85.90115815677669 24.547346894121446, 88.2976179162404 32.87265976311116 C90.69407767570411 41.19797263210087, 89.55527132073222 52.36195522421798, 86.7642786853177 59.91274856578555 C83.9732860499032 67.46354190735312, 77.89161895345092 72.89754476569713, 71.55166210375336 78.17741981251656 C65.2117052540558 83.45729485933599, 56.73564865164391 90.80960557293605, 48.724537587132346 91.5919988467021 C40.71342652262078 92.37439212046814, 30.285360276651332 87.44687998064508, 23.484995716683944 82.87177945511283 C16.684631156716556 78.29667892958058, 12.06893876004457 70.98109219918015, 7.9223502273280175 64.1413956935086 C3.7757616946114654 57.301699187837045, -1.574492878470572 49.845327164877524, -1.3945354796153708 41.83360042108348 C-1.2145780807601696 33.82187367728944, 3.5313724636913824 22.501924704236227, 9.002094620459225 16.071035230744346 C14.472816777227067 9.640145757252466, 24.34452799830101 5.443826495802741, 31.429797460991686 3.2482635801322033 C38.51506692368236 1.0527006644616659, 48.97975432552827 2.8810279412456268, 51.51371139660328 2.897657736721122 C54.047668467678285 2.9142875321966173, 46.91409578769009 2.720817113403354, 46.63353988744173 3.348042352985175" stroke="#000000" stroke-width="1" fill="none"></path></g><g transform="translate(293.8834115211666 206) rotate(0 20 21.5)"><path d="M37.89451325920894 7.937158312632288 C40.329877940542524 11.589714920069316, 39.57310640885129 19.366826013871833, 38.86528258350384 24.0984883319205 C38.157458758156395 28.830150649969166, 36.4707872511147 33.035809250755996, 33.64757030712424 36.327132220924284 C30.82435336313378 39.61845519109257, 25.722831678393653 43.01569756895206, 21.925980919561088 43.84642615293022 C18.129130160728522 44.67715473690838, 14.613058129598292 43.74110109132281, 10.866465754128841 41.31150372479322 C7.11987337865939 38.88190635826363, 0.8347154594895505 33.749184427424986, -0.5535733332556205 29.26884195375268 C-1.9418621260007916 24.78849948008038, 0.4276360238634642 18.62495980981807, 2.536732997657815 14.429448882759402 C4.645829971452166 10.233937955700736, 8.464670349770243 6.509628821048828, 12.101008509510484 4.095776391400683 C15.737346669250725 1.6819239617525383, 19.60993889553774 -2.3989639038658335, 24.35476195609926 -0.053665695129467395 C29.09958501666078 2.2916325136068987, 38.48588075091629 13.459345688475523, 40.569946872879605 18.16756564381888 C42.65401299484292 22.875785599162235, 37.390353141610184 28.429164500864346, 36.85915868787918 28.19565403693067 M28.22850805774504 0.03033424831131981 C32.19825413556998 1.261998468726259, 32.76142016547056 7.3277608211804806, 34.54980493538728 11.358071298867504 C36.338189705303996 15.388381776554528, 39.468909733193186 20.25613313660581, 38.95881667724534 24.212197114433458 C38.44872362129749 28.168261092261105, 34.58922061875515 31.72851285937118, 31.489246599700174 35.094455165833395 C28.389272580645198 38.46039747229561, 24.246467104046285 43.61450806066703, 20.358972562915472 44.40785095320676 C16.47147802178466 45.201193845746495, 11.116303071660518 42.88027112769814, 8.164279352915297 39.8545125210718 C5.212255634170077 36.82875391444546, 3.455511448635449 31.03561214327083, 2.646830250444154 26.2532993134487 C1.838149052252859 21.47098648362657, 1.5452991322079723 15.418528776715142, 3.312192163767527 11.160635542139023 C5.079085195327082 6.902742307562903, 9.978563673317643 2.4179735448629653, 13.248188439801483 0.7059399059919826 C16.517813206285325 -1.006093732879, 20.69297910245009 1.0668400372679308, 22.929940762670572 0.8884337089131265 C25.166902422891056 0.7100273805583223, 26.13848473647558 -0.7594663458369404, 26.669958401124383 -0.3644980641368427" stroke="#000000" stroke-width="1" fill="none"></path></g><g><g transform="translate(562.8834115211666 238) rotate(0 -104.64203490614892 1.099617641195664)"><path d="M2.583216959238052 -0.7341606199741362 C-32.43197475473086 0.2132810533046724, -176.29096427957217 4.929927438497543, -211.86728677153587 5.800251191854477 M0.5410105235874649 -3.6010159094631673 C-33.41546198293567 -3.4587116209169233, -170.86261144563557 -0.14375894064704609, -206.47896569654347 1.766862150877714" stroke="#000000" stroke-width="1" fill="none"></path></g><g transform="translate(562.8834115211666 238) rotate(0 -104.64203490614892 1.099617641195664)"><path d="M-179.73083575425474 -12.184778138553549 C-182.67675406433617 -7.584488532855476, -191.12753433334152 -6.9224493819891455, -208.92021310016514 0.3134419290721415 M-177.3223020320925 -9.853475644742895 C-187.5127788122041 -6.0539236919351715, -197.12830051375803 -2.2578320631789355, -208.16618892237545 1.8145280151069163" stroke="#000000" stroke-width="1" fill="none"></path></g><g transform="translate(562.8834115211666 238) rotate(0 -104.64203490614892 1.099617641195664)"><path d="M-178.9808103878089 8.322719620449801 C-182.12109311688832 8.085460280266277, -190.74930430225376 3.8961113549191433, -208.92021310016514 0.3134419290721415 M-176.57227666564665 10.654022114260455 C-187.00744812742047 7.30494919622603, -196.88458755002603 3.9477829910442495, -208.16618892237545 1.8145280151069163" stroke="#000000" stroke-width="1" fill="none"></path></g></g><g><g transform="translate(367.8834115211666 311) rotate(0 95.4281214425713 -3.640935144677769)"><path d="M-0.14538212418556196 -0.9405165612697601 C32.601085021098456 -1.424946556488673, 161.77870349287986 -1.2703618625799815, 194.52507094740866 -1.9002976357936858 M-3.668828062266112 -3.91939364746213 C28.838401671200995 -5.352929456979037, 158.8763045461476 -6.543252909928561, 192.02924335554243 -6.313984611779452" stroke="#000000" stroke-width="1" fill="none"></path></g><g transform="translate(367.8834115211666 311) rotate(0 95.4281214425713 -3.640935144677769)"><path d="M162.52434005071555 3.348759917299155 C171.84801372334002 3.5797118750747523, 174.30308513551563 -2.4953745350896517, 190.39947540119292 -4.84290901735425 M163.16934322049056 2.2967681267660893 C174.93400431788615 -1.4627484897879608, 185.32367664661987 -2.4561700958573542, 192.34020820811392 -7.729586133509875" stroke="#000000" stroke-width="1" fill="none"></path></g><g transform="translate(367.8834115211666 311) rotate(0 95.4281214425713 -3.640935144677769)"><path d="M162.46562998049666 -17.17236469889804 C171.95032043500078 -12.216899256483472, 174.41890830615407 -13.567533149114045, 190.39947540119292 -4.84290901735425 M163.11063315027167 -18.224356489431106 C174.63800601899996 -14.653858960670602, 185.0486525474712 -8.316099307148999, 192.34020820811392 -7.729586133509875" stroke="#000000" stroke-width="1" fill="none"></path></g></g><g transform="translate(372.3834115211666 259) rotate(0 87.5 13)"><text x="0" y="18" font-family="Virgil, Segoe UI Emoji" font-size="20px" fill="#000000" text-anchor="start" style="white-space: pre;" direction="ltr">Authenticate user</text></g><g><g transform="translate(559.8834115211666 400) rotate(0 -239.50542924307288 2.450909494608652)"><path d="M0.6810252249240873 1.7686323106288908 C-79.02123720844587 1.6253777762254078, -398.54343677560485 0.7300714433193205, -478.34973363280295 1.007810968160629 M-2.3937995807826518 0.26043604061007475 C-82.30746691152454 0.43138046587506906, -400.2635690109432 4.8136060953636965, -479.6918837110698 4.641382948607206" stroke="#000000" stroke-width="1" fill="none"></path></g><g transform="translate(559.8834115211666 400) rotate(0 -239.50542924307288 2.450909494608652)"><path d="M-449.0450359622679 -3.4534931848899264 C-459.7204049194134 0.04387085501520316, -464.55221814680067 -0.5931746344939315, -481.8428078572452 1.3819229166209697 M-450.85389325420476 -6.803832269753589 C-459.4371308543358 -1.5653131259174162, -465.7561701820999 -1.6085746865908765, -480.697379527539 4.352826164215803" stroke="#000000" stroke-width="1" fill="none"></path></g><g transform="translate(559.8834115211666 400) rotate(0 -239.50542924307288 2.450909494608652)"><path d="M-448.9052471696166 17.067239294222222 C-459.8955811902343 14.508852269716805, -464.7686512873179 7.815375717983143, -481.8428078572452 1.3819229166209697 M-450.71410446155346 13.71690020935856 C-458.9350024910731 13.51621645028005, -465.2911026095394 8.032500350729686, -480.697379527539 4.352826164215803" stroke="#000000" stroke-width="1" fill="none"></path></g></g><g transform="translate(175.38341152116658 363) rotate(0 174.5 13)"><text x="0" y="18" font-family="Virgil, Segoe UI Emoji" font-size="20px" fill="#000000" text-anchor="start" style="white-space: pre;" direction="ltr">Return id_token and access_token</text></g><g><g transform="translate(72.88341152116658 400) rotate(0 -31.70305401109161 2.2596921660655767)"><path d="M-0.5226965010166169 2.5171994268894196 C-10.288066107034682 3.0276139954725902, -49.88810469905535 4.364738565683365, -60.066464620828626 4.486287981271744 M-4.2509702436625965 1.415368162840605 C-14.352479116966327 0.9738782517611984, -54.23058047379057 -0.5633836777508258, -62.883411521166565 0.2824617688357831" stroke="#000000" stroke-width="1" fill="none"></path></g></g><g><g transform="translate(11.883411521166579 400) rotate(0 0.5530306229740631 28.27567405723036)"><path d="M-1.6081967294216155 -2.0643259108066556 C-1.5747739414374033 7.720406208435696, 1.6198315044244134 46.11988340417544, 2.323959451913834 56.04670333266258 M2.7142579753696916 2.9867290703952314 C2.1213621290028093 13.317995761285225, 0.07118776395916909 49.05788740639885, -0.28104295179247885 58.61567402526736" stroke="#000000" stroke-width="1" fill="none"></path></g></g><g><g transform="translate(16.88341152116658 456) rotate(0 26.518339818716044 -2.140363040471698)"><path d="M-2.633714109659195 -0.8137873589992524 C6.984713484843573 -0.9287064492702485, 46.6964668850104 -0.21366032958030748, 55.670393747091296 -0.22343415617942863 M1.1320311601459982 -3.723868592530489 C10.7131427295506 -4.587301862984896, 45.10656806543469 -3.4729134018719194, 54.33916996076703 -3.7268238146603108" stroke="#000000" stroke-width="1" fill="none"></path></g><g transform="translate(16.88341152116658 456) rotate(0 26.518339818716044 -2.140363040471698)"><path d="M27.731953379487884 7.814730901758068 C38.609967491725484 -0.158307250889262, 43.46224747840505 3.913970209190551, 57.81903259113431 -3.277793355733156 M27.220414724922072 7.332336355487698 C36.69173155231072 3.2704681926147545, 46.39496130424632 -1.2226926993720006, 54.074598085433244 -2.8758180518448353" stroke="#000000" stroke-width="1" fill="none"></path></g><g transform="translate(16.88341152116658 456) rotate(0 26.518339818716044 -2.140363040471698)"><path d="M27.799974510968816 -10.682711490750325 C38.724119205605774 -14.455580866810662, 43.560949095541304 -6.181855000045736, 57.81903259113431 -3.277793355733156 M27.288435856403005 -11.165106037020696 C37.014555202664184 -8.221281681459462, 46.69202317054669 -5.7088678928173655, 54.074598085433244 -2.8758180518448353" stroke="#000000" stroke-width="1" fill="none"></path></g></g><g transform="translate(85.88341152116658 442) rotate(0 108 13)"><text x="0" y="18" font-family="Virgil, Segoe UI Emoji" font-size="20px" fill="#000000" text-anchor="start" style="white-space: pre;" direction="ltr">Validate the signature</text></g></svg>