<svg xmlns="http://www.w3.org/2000/svg" version="1.0" width="320" height="120" viewBox="0 0 6440 8334">
  <path
    d="M-1265.755 3118.042c-607.668-378.36-1456.11-613.401-2384.81-613.401-1868.868 0-3382.306 934.433-3382.306 2086.71 0 1054.82 1261.199 1920.46 2895.024 2069.512v-607.669c-1100.682-137.585-1926.194-739.52-1926.194-1461.843 0-819.78 1077.751-1490.507 2413.475-1490.507 664.996 0 1266.931 166.248 1702.618 435.686l-619.134 384.093h1931.927V2728.217l-630.6 389.825z"
    fill="#ccc" />
  <path d="M-4137.847 1472.751v5188.112l968.83-607.669V847.884l-968.83 624.867z" fill="#f7931e" />
  <g fill="#f7931e">
    <path
      d="M48.62 4263.989c61.229-214.298 160.724-397.983 290.834-558.706 137.763-160.724 298.487-290.833 497.478-382.676 198.99-99.495 428.596-145.416 688.815-145.416 267.873 0 497.478 45.92 696.47 145.416 191.337 91.843 359.714 221.952 489.824 382.676 130.11 160.723 229.605 344.408 290.833 558.706 68.882 206.644 99.496 428.596 99.496 658.201 0 229.606-30.614 451.557-99.496 665.855-61.228 206.645-160.724 390.33-290.833 551.053-130.11 160.724-298.487 290.833-489.825 382.675-198.99 99.496-428.596 145.417-696.469 145.417-260.219 0-489.824-45.921-688.815-145.417-198.991-91.842-359.715-221.951-497.478-382.675-130.11-160.724-229.605-344.408-290.833-551.053-68.882-214.298-99.496-436.25-99.496-665.855 0-229.605 30.614-451.557 99.496-658.201m290.833 1201.6c45.92 176.031 122.456 329.101 229.605 474.518 99.496 137.763 229.605 244.912 390.329 336.754 160.723 84.189 344.408 122.456 566.36 122.456 221.951 0 413.289-38.267 574.012-122.456 160.724-91.842 283.18-198.991 390.33-336.754 99.495-145.417 176.03-298.487 221.95-474.518 45.922-176.03 76.536-359.715 76.536-543.399 0-183.684-30.614-359.714-76.535-535.745-45.921-176.03-122.456-336.754-221.952-474.518-107.149-137.763-229.605-252.565-390.329-336.754-160.723-84.188-352.061-122.456-574.013-122.456-221.951 0-405.636 38.268-566.36 122.456-160.723 84.189-290.832 198.991-390.328 336.754-107.15 137.764-183.684 298.487-229.605 474.518-45.921 176.03-68.882 352.061-68.882 535.745 0 183.684 22.96 367.369 68.882 543.4zM3576.887 4179.8v459.21h7.654c68.881-168.377 183.684-298.486 336.754-390.328 153.07-91.842 329.1-137.763 528.092-137.763 183.684 0 344.408 30.614 482.17 99.495 137.764 68.882 252.567 160.724 344.409 283.18 84.188 114.803 153.07 252.566 198.99 405.636 45.922 153.07 68.882 321.447 68.882 489.824 0 176.03-22.96 336.755-68.881 489.825s-114.803 290.833-198.991 405.636c-91.842 122.456-206.645 214.298-344.408 283.18-137.763 61.227-298.487 99.495-482.171 99.495-91.842 0-176.03-15.307-267.873-30.614-84.188-22.96-168.377-61.228-237.259-99.496-76.535-45.92-145.416-99.495-206.644-168.377-53.575-61.228-99.496-137.763-130.11-229.605h-7.653v1347.017H3301.36V4179.8h275.526m1622.544 841.886c-30.615-130.11-76.536-237.259-137.764-336.754-68.881-91.842-153.07-176.031-252.565-237.26-99.496-61.227-214.299-84.188-359.715-84.188-160.724 0-298.487 22.96-405.636 84.189-114.803 53.574-198.991 130.11-267.873 221.952-61.228 91.842-107.149 206.644-137.763 329.1-22.96 122.457-38.267 252.566-38.267 390.33 0 130.109 15.307 252.565 45.92 375.021 30.615 122.456 76.536 237.259 145.417 329.1 68.882 99.496 153.07 176.032 260.22 237.26 107.149 61.228 244.912 91.842 397.982 91.842 145.416 0 260.22-30.614 359.715-91.842 99.495-61.228 183.684-137.764 252.565-237.26 61.228-91.841 107.15-206.644 137.764-329.1 30.614-122.456 45.92-244.912 45.92-375.022 0-122.456-15.306-244.912-45.92-367.368zM6041.316 5802.344c30.614 114.802 76.535 214.298 145.417 306.14 61.228 91.842 145.417 168.377 244.912 221.952 99.496 61.228 221.952 91.842 359.715 91.842 214.298 0 382.675-53.575 505.131-168.378 122.456-114.802 206.645-260.219 252.566-451.556h298.487c-61.228 275.526-176.03 489.824-344.408 635.24-168.377 153.07-405.636 229.606-711.776 229.606-191.338 0-352.061-38.268-489.825-99.496-145.416-68.881-252.565-160.723-344.407-283.18-84.189-114.802-153.07-252.565-191.338-405.635-45.921-153.07-61.228-313.794-61.228-489.825 0-160.723 15.307-313.794 61.228-466.864 38.268-153.07 107.15-290.833 191.338-413.289 91.842-122.456 198.99-214.298 344.407-290.833 137.764-68.882 298.487-107.15 489.825-107.15 191.338 0 359.715 38.268 497.478 114.803 137.763 76.535 252.566 183.684 336.754 306.14 84.189 130.11 145.417 275.527 183.684 436.25 38.268 160.724 53.575 329.101 45.921 497.478H5995.395c0 107.15 15.307 221.952 45.921 336.755m1461.82-903.114c-38.268-107.15-91.842-198.991-153.07-275.526-68.882-76.535-145.417-145.417-237.259-191.338-99.495-45.921-198.991-68.882-321.447-68.882-122.456 0-229.605 22.96-321.447 68.882-91.842 45.92-176.031 114.803-237.26 191.338-68.88 76.535-122.455 168.377-160.723 275.526-38.267 99.495-61.228 206.644-76.535 321.447h1561.316c0-114.803-22.96-221.952-53.575-321.447zM8299.1 4179.8v413.29h7.654c61.228-145.417 160.724-260.22 306.14-352.062 137.764-84.188 298.487-130.11 474.518-130.11 168.377 0 306.14 22.961 420.943 61.229 114.802 45.92 206.644 107.149 275.526 191.337 68.882 76.535 114.803 176.031 145.417 290.834 30.614 114.802 38.267 244.912 38.267 390.328v1553.662h-290.833v-1507.74c0-107.15-7.654-198.992-30.614-290.834-15.307-84.188-53.575-160.723-99.496-229.605-45.92-68.882-107.149-114.803-191.337-153.07-76.535-38.268-176.031-53.575-290.834-53.575-122.456 0-229.605 15.307-321.447 61.228-91.842 38.268-168.377 99.496-229.605 168.378-68.882 76.535-114.803 160.723-153.07 267.872-38.268 99.496-53.575 206.645-61.228 329.101v1408.245h-290.834V4179.8h290.834zM10533.925 3253.726v3344.582h-313.794V3253.726h313.794zM11934.516 3253.726c512.785 7.653 895.46 153.07 1155.68 428.596 252.566 275.526 382.675 688.816 382.675 1239.868 0 558.706-130.11 971.996-382.675 1247.522-260.22 275.526-642.895 413.29-1155.68 428.596h-1155.68V3253.726h1155.68m-153.07 3069.056c237.259 0 443.904-22.96 619.934-76.535 168.377-53.575 313.794-130.11 428.597-244.912 107.149-114.803 191.337-260.22 244.912-436.25 53.574-176.03 76.535-390.329 76.535-642.895 0-244.912-22.96-459.21-76.535-635.24-53.575-183.685-137.763-329.102-244.912-436.25-114.803-114.803-260.22-198.992-428.597-244.913-176.03-53.574-382.675-84.188-619.934-84.188h-681.162v2801.183h681.162z" />
  </g>
</svg>
